<svg width="20" height="20" viewBox="0 0 20 20" fill="none" xmlns="http://www.w3.org/2000/svg">
<path fill-rule="evenodd" clip-rule="evenodd" d="M4.62478 4.63246L2.18383 5.00012L2 3.77965L5.66142 3.22815L6.21291 6.88957L4.99244 7.0734L4.62478 4.63246Z" fill="#707276"/>
<path fill-rule="evenodd" clip-rule="evenodd" d="M5.50024 3.53123C3.45478 4.96014 2.1168 7.33206 2.1168 10.0165C2.1168 14.3825 5.65618 17.9219 10.0222 17.9219C14.3883 17.9219 17.9277 14.3825 17.9277 10.0165C17.9277 5.66305 14.4087 2.13152 10.0601 2.11113L10.035 3.11105C13.8429 3.11796 16.9277 6.20698 16.9277 10.0165C16.9277 13.8302 13.836 16.9219 10.0222 16.9219C6.20847 16.9219 3.1168 13.8302 3.1168 10.0165C3.1168 7.82679 4.13598 5.87514 5.72584 4.61003L5.50024 4.61583V3.99871V3.53123Z" fill="#707276"/>
<path d="M17.4363 1.88861L17.0851 1.53274L16.7292 1.88395L1.64918 16.7664L1.2933 17.1176L1.64451 17.4735L2.51148 18.352L2.86269 18.7078L3.21857 18.3566L18.2986 3.47418L18.6545 3.12296L18.3032 2.76709L17.4363 1.88861Z" fill="#707276" stroke="white"/>
</svg>
